<?xml version="1.0" encoding="UTF-8" standalone="no"?>
<!DOCTYPE svg PUBLIC "-//W3C//DTD SVG 1.1//EN"
 "http://www.w3.org/Graphics/SVG/1.1/DTD/svg11.dtd">
<!-- Generated by graphviz version 2.43.0 (0)
 -->
<!-- Title: %3 Pages: 1 -->
<svg width="220pt" height="429pt"
 viewBox="0.00 0.00 220.00 429.00" xmlns="http://www.w3.org/2000/svg" xmlns:xlink="http://www.w3.org/1999/xlink">
<g id="graph0" class="graph" transform="scale(1 1) rotate(0) translate(4 425)">
<title>%3</title>
<polygon fill="white" stroke="transparent" points="-4,4 -4,-425 216,-425 216,4 -4,4"/>
<g id="clust1" class="cluster">
<title>cluster_offline</title>
<polygon fill="none" stroke="red" points="8,-264 8,-413 204,-413 204,-264 8,-264"/>
<text text-anchor="middle" x="106" y="-397.8" font-family="Times,serif" font-size="14.00">Signing ceremony</text>
</g>
<g id="clust2" class="cluster">
<title>cluster_hsm</title>
<polygon fill="none" stroke="orange" points="15,-165 15,-256 197,-256 197,-165 15,-165"/>
<text text-anchor="middle" x="106" y="-240.8" font-family="Times,serif" font-size="14.00">Mfg station &#160;&#160;&#160;w/YubiHSM</text>
<text text-anchor="middle" x="106" y="-225.8" font-family="Times,serif" font-size="14.00">or (soon) &#160;&#160;&#160;&#160;w/permslip</text>
</g>
<g id="clust3" class="cluster">
<title>cluster_device</title>
<polygon fill="none" stroke="darkgreen" points="19,-8 19,-157 193,-157 193,-8 19,-8"/>
<text text-anchor="middle" x="106" y="-141.8" font-family="Times,serif" font-size="14.00">On the &#160;&#160;&#160;device</text>
</g>
<!-- Offline root -->
<g id="node1" class="node">
<title>Offline root</title>
<polygon fill="none" stroke="black" points="65.5,-345.5 65.5,-381.5 146.5,-381.5 146.5,-345.5 65.5,-345.5"/>
<text text-anchor="middle" x="106" y="-359.8" font-family="Times,serif" font-size="14.00">Offline root</text>
</g>
<!-- Intermediate signer certificate -->
<g id="node2" class="node">
<title>Intermediate signer certificate</title>
<polygon fill="none" stroke="black" points="16,-272.5 16,-308.5 196,-308.5 196,-272.5 16,-272.5"/>
<text text-anchor="middle" x="106" y="-286.8" font-family="Times,serif" font-size="14.00">Intermediate signer certificate</text>
</g>
<!-- Offline root&#45;&gt;Intermediate signer certificate -->
<g id="edge1" class="edge">
<title>Offline root&#45;&gt;Intermediate signer certificate</title>
<path fill="none" stroke="black" d="M106,-345.31C106,-337.29 106,-327.55 106,-318.57"/>
<polygon fill="black" stroke="black" points="109.5,-318.53 106,-308.53 102.5,-318.53 109.5,-318.53"/>
</g>
<!-- Platform identity certificate -->
<g id="node3" class="node">
<title>Platform identity certificate</title>
<polygon fill="none" stroke="black" points="22.5,-173.5 22.5,-209.5 189.5,-209.5 189.5,-173.5 22.5,-173.5"/>
<text text-anchor="middle" x="106" y="-187.8" font-family="Times,serif" font-size="14.00">Platform identity certificate</text>
</g>
<!-- Intermediate signer certificate&#45;&gt;Platform identity certificate -->
<g id="edge2" class="edge">
<title>Intermediate signer certificate&#45;&gt;Platform identity certificate</title>
<path fill="none" stroke="black" d="M106,-272.16C106,-257.68 106,-236.76 106,-220"/>
<polygon fill="black" stroke="black" points="109.5,-219.69 106,-209.69 102.5,-219.69 109.5,-219.69"/>
</g>
<!-- Device identity certificate -->
<g id="node4" class="node">
<title>Device identity certificate</title>
<polygon fill="none" stroke="black" points="27,-89.5 27,-125.5 185,-125.5 185,-89.5 27,-89.5"/>
<text text-anchor="middle" x="106" y="-103.8" font-family="Times,serif" font-size="14.00">Device identity certificate</text>
</g>
<!-- Platform identity certificate&#45;&gt;Device identity certificate -->
<g id="edge3" class="edge">
<title>Platform identity certificate&#45;&gt;Device identity certificate</title>
<path fill="none" stroke="black" d="M106,-173.11C106,-162.27 106,-148.1 106,-135.79"/>
<polygon fill="black" stroke="black" points="109.5,-135.58 106,-125.58 102.5,-135.58 109.5,-135.58"/>
</g>
<!-- Root of Trust attestations -->
<g id="node5" class="node">
<title>Root of Trust attestations</title>
<polygon fill="none" stroke="black" points="29,-16.5 29,-52.5 183,-52.5 183,-16.5 29,-16.5"/>
<text text-anchor="middle" x="106" y="-30.8" font-family="Times,serif" font-size="14.00">Root of Trust attestations</text>
</g>
<!-- Device identity certificate&#45;&gt;Root of Trust attestations -->
<g id="edge4" class="edge">
<title>Device identity certificate&#45;&gt;Root of Trust attestations</title>
<path fill="none" stroke="black" d="M106,-89.31C106,-81.29 106,-71.55 106,-62.57"/>
<polygon fill="black" stroke="black" points="109.5,-62.53 106,-52.53 102.5,-62.53 109.5,-62.53"/>
</g>
</g>
</svg>
